HIERARCHY
ROOT root
{
	OFFSET	0	13.1	24.9
	CHANNELS 6  Xposition Yposition Zposition Xrotation Yrotation Zrotation
	JOINT spine_1
	{
		OFFSET	0	9.99999	0
		CHANNELS 3  Xrotation Yrotation Zrotation
		JOINT spine_2
		{
			OFFSET	0	112	-10
			CHANNELS 3  Xrotation Yrotation Zrotation
			JOINT spine_3
			{
				OFFSET	0	206.5	19.3
				CHANNELS 3  Xrotation Yrotation Zrotation
				JOINT spine_4
				{
					OFFSET	0	110.4	14.6
					CHANNELS 3  Xrotation Yrotation Zrotation
					JOINT neck_1
					{
						OFFSET	0	71.8	-50.3
						CHANNELS 3  Xrotation Yrotation Zrotation
						JOINT neck_2
						{
							OFFSET	0	86.2	-25.8
							CHANNELS 3  Xrotation Yrotation Zrotation
							JOINT head_ee
							{
								OFFSET	0	179.8	-8.7
								CHANNELS 3  Xrotation Yrotation Zrotation
								End Site
								{
									OFFSET	1	0	0
								}
							}
						}
					}
					JOINT left_clavicle
					{
						OFFSET	-43.2	22.4	-70.8
						CHANNELS 3  Xrotation Yrotation Zrotation
						JOINT left_shoulder
						{
							OFFSET	-93.9	-5.79999	48.7
							CHANNELS 3  Xrotation Yrotation Zrotation
							JOINT left_elbow
							{
								OFFSET	-291.4	-30.8	15.2
								CHANNELS 3  Xrotation Yrotation Zrotation
								JOINT left_lowarm_twist
								{
									OFFSET	-110.7	-3.89999	13.6
									CHANNELS 3  Xrotation Yrotation Zrotation
									JOINT left_hand
									{
										OFFSET	-110.7	-3.89999	13.6
										CHANNELS 3  Xrotation Yrotation Zrotation
										JOINT left_ee
										{
											OFFSET	-80.8	-5.10001	12.1
											CHANNELS 3  Xrotation Yrotation Zrotation
											End Site
											{
												OFFSET	1	0	0
											}
										}
									}
								}
							}
						}
					}
					JOINT right_clavicle
					{
						OFFSET	43.2	22.4	-70.8
						CHANNELS 3  Xrotation Yrotation Zrotation
						JOINT right_shoulder
						{
							OFFSET	93.9	-5.79999	48.7
							CHANNELS 3  Xrotation Yrotation Zrotation
							JOINT right_elbow
							{
								OFFSET	291.4	-30.8	15.2
								CHANNELS 3  Xrotation Yrotation Zrotation
								JOINT right_lowarm_twist
								{
									OFFSET	110.7	-3.89999	13.6
									CHANNELS 3  Xrotation Yrotation Zrotation
									JOINT right_hand
									{
										OFFSET	110.7	-3.89999	13.6
										CHANNELS 3  Xrotation Yrotation Zrotation
										JOINT right_ee
										{
											OFFSET	80.8	-5.10001	12.1
											CHANNELS 3  Xrotation Yrotation Zrotation
											End Site
											{
												OFFSET	1	0	0
											}
										}
									}
								}
							}
						}
					}
				}
			}
		}
	}
	JOINT left_hip
	{
		OFFSET	-82.8	-127.5	0.300001
		CHANNELS 3  Xrotation Yrotation Zrotation
		JOINT left_knee
		{
			OFFSET	-28.2	-396.7	2.2
			CHANNELS 3  Xrotation Yrotation Zrotation
			JOINT left_ankle
			{
				OFFSET	-11.7	-411.3	35.4
				CHANNELS 3  Xrotation Yrotation Zrotation
				JOINT left_toes
				{
					OFFSET	0	-60	-88.6
					CHANNELS 3  Xrotation Yrotation Zrotation
					JOINT left_foot_ee
					{
						OFFSET	-22.5	-16.5	-42.2
						CHANNELS 3  Xrotation Yrotation Zrotation
						End Site
						{
							OFFSET	1	0	0
						}
					}
				}
			}
		}
	}
	JOINT right_hip
	{
		OFFSET	82.8	-127.5	0.300001
		CHANNELS 3  Xrotation Yrotation Zrotation
		JOINT right_knee
		{
			OFFSET	28.2	-396.7	2.2
			CHANNELS 3  Xrotation Yrotation Zrotation
			JOINT right_ankle
			{
				OFFSET	11.7	-411.3	35.4
				CHANNELS 3  Xrotation Yrotation Zrotation
				JOINT right_toes
				{
					OFFSET	0	-60	-88.6
					CHANNELS 3  Xrotation Yrotation Zrotation
					JOINT right_foot_ee
					{
						OFFSET	22.5	-16.5	-42.2
						CHANNELS 3  Xrotation Yrotation Zrotation
						End Site
						{
							OFFSET	1	0	0
						}
					}
				}
			}
		}
	}
}
MOTION
Frames: 6
Frame Time: 0.02
533.711923316 705.919 -1310.83728413 1.98586934486 -72.809975809 1.89722656391 -3.36784 -0.377427 -0.372054 -3.36783 -0.352987 -0.395317 -3.36524 -0.234532 -0.475257 -3.36542 -0.306646 -0.432254 9.53513 -17.2282 5.41185 11.9422 -33.3043 7.16568 -0.0 0.0 -0.0 7.97485 -22.086 14.742 87.4394 78.9632 -10.9969 0.200997 -5.68622 0.00998196 47.7178 -0.810318 -5.8679 -8.79966 19.7439 -52.8193 -0.0 0.0 -0.0 11.2751 17.8662 -22.4152 -34.1598 39.9099 -52.462 0.502474 13.9777 -0.061597 14.9266 -0.282397 1.88045 0.54643 9.15632 0.199461 0.0 0.0 0.0 9.41924 56.3743 -7.9498 -8.66791 0.258663 1.30385 18.6616 -30.97 -3.25908 4.97054 -0.0 -0.0 -0.0 0.0 -0.0 20.4214 -21.1194 16.5354 -25.2182 -0.197326 -3.83379 -6.67505 -27.8081 -1.04838 32.7443 -0.0 -0.0 0.0 0.0 0.0 
572.823260607 699.375 -1302.93100668 14.1751903106 -77.7087318866 13.8629380984 -3.5413 -0.341867 -0.245703 -3.54132 -0.325539 -0.266959 -3.53974 -0.241326 -0.34497 -3.53979 -0.292778 -0.302529 8.28213 -16.6834 4.91312 10.3378 -32.2399 6.16019 -0.0 0.0 -0.0 7.15947 -20.9325 13.0503 89.3399 81.5373 -11.8031 0.258193 -7.28881 0.016445 48.2139 -0.843932 -5.92177 -8.82212 20.2567 -52.3106 -0.0 0.0 -0.0 10.5163 16.4923 -20.7763 -36.1221 41.3878 -53.4742 0.611632 16.8561 -0.090625 17.3879 -0.281551 2.19479 0.537194 9.39985 0.365795 0.0 0.0 0.0 4.76025 57.9889 -8.36265 -8.09424 0.24767 1.2165 20.877 -32.1648 -3.65923 4.77095 -0.0 -0.0 -0.0 0.0 -0.0 21.4293 -21.8521 16.7973 -24.7132 -0.209999 -3.75733 -1.84635 -25.251 -0.283386 30.1572 -0.0 -0.0 0.0 0.0 0.0 
592.388065409 700.55 -1301.51018979 23.5641870691 -77.5647985043 24.6960983879 -3.921 -0.351898 -0.804816 -3.92068 -0.299974 -0.825575 -3.91564 -0.0600718 -0.876324 -3.91666 -0.197712 -0.855842 6.8883 -15.1095 4.70964 8.46889 -29.6915 5.47182 -0.0 0.0 -0.0 8.05835 -19.7717 15.1142 82.473 80.8996 -4.61051 0.255122 -7.20303 0.0160578 49.1307 -0.907283 -6.02058 -8.65078 19.8522 -51.0794 -0.0 0.0 -0.0 10.0727 13.6632 -19.9065 -38.3514 42.5092 -51.7376 0.642571 17.6569 -0.0998031 16.6897 -0.283163 2.10563 0.426318 8.66232 0.799724 0.0 0.0 0.0 3.82187 60.2799 -11.3005 -7.75615 0.240783 1.16508 22.0264 -32.625 -3.8587 5.49818 -0.0 -0.0 -0.0 0.0 -0.0 16.5961 -23.2715 15.2709 -21.9015 -0.268201 -3.32983 -1.39051 -25.2158 -0.213187 34.2458 -0.0 -0.0 0.0 0.0 0.0 
596.658896701 700.55 -1292.1254935 29.5188129927 -79.937663305 30.7658412424 -3.921 -0.351898 -0.804816 -3.92068 -0.299974 -0.825575 -3.91564 -0.0600718 -0.876324 -3.91666 -0.197712 -0.855842 6.8883 -15.1095 4.70964 8.46889 -29.6915 5.47182 -0.0 0.0 -0.0 8.05835 -19.7717 15.1142 82.473 80.8996 -4.61051 0.255122 -7.20303 0.0160578 49.1307 -0.907283 -6.02058 -8.65078 19.8522 -51.0794 -0.0 0.0 -0.0 10.0727 13.6632 -19.9065 -38.3514 42.5092 -51.7376 0.642571 17.6569 -0.0998031 16.6897 -0.283163 2.10563 0.426318 8.66232 0.799724 0.0 0.0 0.0 3.82187 60.2799 -11.3005 -7.75615 0.240783 1.16508 22.0264 -32.625 -3.8587 5.49818 -0.0 -0.0 -0.0 0.0 -0.0 16.5961 -23.2715 15.2709 -21.9015 -0.268201 -3.32983 -1.39051 -25.2158 -0.213187 34.2458 -0.0 -0.0 0.0 0.0 0.0 
657.110061207 698.73 -1293.11299826 33.0880316192 -76.6419636494 34.9391973396 -4.13105 -0.272404 -1.26068 -4.13019 -0.191639 -1.27546 -4.12439 0.173097 -1.2781 -4.12666 -0.0309106 -1.2894 2.93213 -10.2782 3.4537 3.48643 -20.8637 3.20976 -0.0 0.0 -0.0 9.00462 -15.5335 17.4675 50.2624 77.1813 22.9203 0.245853 -6.94393 0.0149163 51.9014 -1.10827 -6.31292 -8.62322 20.3202 -50.147 -0.0 0.0 -0.0 9.5636 2.9896 -18.8558 -40.8602 42.2256 -52.0673 0.683155 18.6966 -0.112464 11.5926 -0.262017 1.45516 0.407462 9.84827 1.43325 0.0 0.0 0.0 -6.11435 40.3408 -9.3702 -8.31027 0.251913 1.24938 19.6617 -29.3249 -3.34058 9.3933 -0.0 -0.0 -0.0 0.0 -0.0 15.0208 -23.3039 12.0526 -9.15608 -0.267328 -1.37825 -7.47467 -24.1714 -1.1523 32.2329 -0.0 -0.0 0.0 0.0 0.0 
658.058306558 699.301 -1292.19592402 31.922290372 -76.3045217104 33.5639579465 -4.29848 -0.29304 -1.1681 -4.29775 -0.218122 -1.18437 -4.29183 0.125665 -1.19772 -4.29383 -0.0650554 -1.20253 2.99057 -10.1285 3.621 3.54825 -20.7375 3.41674 -0.0 0.0 -0.0 9.46366 -17.3475 18.3817 66.0902 77.225 7.34077 0.222958 -6.30274 0.0122755 51.8276 -1.10273 -6.30526 -8.79965 21.1937 -50.7165 -0.0 0.0 -0.0 9.34697 1.15717 -18.3541 -37.9769 41.6593 -53.2417 0.66317 18.1862 -0.106142 10.3267 -0.247802 1.29409 0.716163 11.033 -0.142647 0.0 0.0 0.0 -3.77189 45.1048 -11.5156 -9.41802 0.271716 1.41821 20.0923 -31.2401 -3.49292 9.25877 -0.0 -0.0 -0.0 0.0 -0.0 15.0604 -24.2099 11.1609 -4.67514 -0.16406 -0.698539 -10.0912 -29.633 -1.6111 35.308 -0.0 -0.0 0.0 0.0 0.0 
